<svg xmlns="http://www.w3.org/2000/svg" viewBox="0 0 1024.71 157.65"><defs><style>.a1916874-b111-4f61-ba70-deceba8f28bd{fill:#fff;}</style></defs><g id="b7f66074-4b35-4625-85eb-aa330b881b60" data-name="Layer 2"><g id="abfec89c-7176-46e4-88cd-2c1c32c08451" data-name="Layer 1"><path class="a1916874-b111-4f61-ba70-deceba8f28bd" d="M129.33,14.66q-.79,11.68-1.09,22.57t-.3,16.64c0,2.77.07,5.42.2,7.92s.26,4.63.4,6.34H124q-4.56-18.61-11-29.31T99.32,23.67A27.21,27.21,0,0,0,85,19.21h-.2V132.5q0,8.12,1.68,12.08a8.82,8.82,0,0,0,6.44,5.15,61.07,61.07,0,0,0,13.86,1.19v4q-6.93-.19-18.72-.4t-24.65-.2q-12.29,0-23.17.2t-17.63.4v-4a61.07,61.07,0,0,0,13.86-1.19,8.82,8.82,0,0,0,6.44-5.15q1.68-4,1.68-12.08V19.21h-.2A27.18,27.18,0,0,0,30,23.67q-7.25,4.45-13.57,15T5.35,68.13H.79a51,51,0,0,0,.5-6.34c.06-2.5.1-5.15.1-7.92q0-5.74-.3-16.64T0,14.66q9.51.19,21,.39t23,.2H85.56q11.47,0,23-.2T129.33,14.66Z"/><path class="a1916874-b111-4f61-ba70-deceba8f28bd" d="M161.21,0V64.17A27.32,27.32,0,0,1,174,52.78a46.83,46.83,0,0,1,18.71-3.46q9.12,0,14.36,2.27a20.93,20.93,0,0,1,8,5.65,22.58,22.58,0,0,1,4.36,9.5,73.86,73.86,0,0,1,1.39,16.05v53.67q0,8.31,2.47,11.29t8.62,3v4.16q-4-.19-12-.5t-15.75-.3q-8.33,0-16.24.3t-11.88.5v-4.16q5.15,0,7.13-3t2-11.29V72.09a20.84,20.84,0,0,0-1-6.93A8.17,8.17,0,0,0,181.12,61a10.11,10.11,0,0,0-5.65-1.39,14.36,14.36,0,0,0-9.9,4,13.28,13.28,0,0,0-4.36,10.3v62.59q0,8.31,2.08,11.29t7,3v4.16c-2.51-.13-6.2-.3-11.09-.5s-9.9-.3-15-.3c-5.54,0-11.16.1-16.83.3s-10,.37-12.88.5v-4.16c4.09,0,7-1,8.62-3s2.47-5.75,2.47-11.29V23.77c0-5.95-.79-10.33-2.37-13.17s-4.49-4.26-8.72-4.26V2.18q6.34.6,12.28.59,9.9,0,18.52-.69A149.1,149.1,0,0,0,161.21,0Z"/><path class="a1916874-b111-4f61-ba70-deceba8f28bd" d="M242.22,156.26q-13.49,0-19.51-7.23a25.28,25.28,0,0,1-6-16.73q0-8.52,3.76-13.87a29.18,29.18,0,0,1,9.8-8.71A77.18,77.18,0,0,1,243,104.08q6.72-2.28,12.77-4.46a36.43,36.43,0,0,0,9.81-5.05,9,9,0,0,0,3.76-7.43V69.52a25.39,25.39,0,0,0-1.09-6.94,14.29,14.29,0,0,0-4.06-6.53q-3-2.77-8.91-2.77a20,20,0,0,0-6,.89,17.1,17.1,0,0,0-5.05,2.47q6.93,2.58,10.1,7.23a17.79,17.79,0,0,1,3.16,10.2q0,7.92-5.54,12.48a20,20,0,0,1-13.07,4.55c-5.28,0-9.38-1.64-12.28-4.95a17.89,17.89,0,0,1-4.36-12.28,17.27,17.27,0,0,1,3.07-10.39,29.28,29.28,0,0,1,9.21-7.83,44.88,44.88,0,0,1,14.26-4.85,99.06,99.06,0,0,1,17.43-1.48,81.23,81.23,0,0,1,18,1.88,28,28,0,0,1,14.26,8,20.71,20.71,0,0,1,5.35,10.89A97.47,97.47,0,0,1,305,87V140a21.72,21.72,0,0,0,.69,6.74,2.49,2.49,0,0,0,2.48,1.78,5.48,5.48,0,0,0,3.07-1c1-.66,1.94-1.32,2.87-2l2,3.37a27.68,27.68,0,0,1-10.79,5.54,50.64,50.64,0,0,1-13.57,1.78q-12.89,0-17.13-4.55a16.67,16.67,0,0,1-4.66-10.5A32.61,32.61,0,0,1,259.25,152Q252.52,156.27,242.22,156.26ZM262,140.42a8.72,8.72,0,0,0,7.33-3.37V95.26a23.93,23.93,0,0,1-5,6.24q-3,2.67-5.85,5.75a25.17,25.17,0,0,0-4.75,7.52,29.42,29.42,0,0,0-1.88,11.39q0,7.92,2.87,11.09A9.34,9.34,0,0,0,262,140.42Z"/><path class="a1916874-b111-4f61-ba70-deceba8f28bd" d="M345.6,20V52.09H365v4H345.6v82.19q0,3.76,1.38,5.45t4.56,1.68a13.31,13.31,0,0,0,5.15-1.29,14.86,14.86,0,0,0,5.54-4.45l3,2.37a32.35,32.35,0,0,1-11,11.39q-6.82,4.26-17.13,4.26A38.48,38.48,0,0,1,325.3,156a21,21,0,0,1-8.62-5.05,20.07,20.07,0,0,1-5.55-10.8A95.74,95.74,0,0,1,310,123.39V56.05H294.89v-4H310V28.72a81.33,81.33,0,0,0,19.11-2.08A62.64,62.64,0,0,0,345.6,20Z"/><path class="a1916874-b111-4f61-ba70-deceba8f28bd" d="M385.2,74.67a41.59,41.59,0,0,1,15.65,2.87,112,112,0,0,1,13.86,6.73A115.22,115.22,0,0,0,428.48,91a39.21,39.21,0,0,0,14.95,2.87,24.44,24.44,0,0,0,12.87-3.47q5.74-3.47,8.92-12l3.56.59q-1.38,16.85-10.69,27t-21.39,10.2a41.43,41.43,0,0,1-15.65-2.88,109.94,109.94,0,0,1-13.86-6.73,119.25,119.25,0,0,0-13.67-6.73,38.84,38.84,0,0,0-15-2.87,23.9,23.9,0,0,0-12.77,3.46q-5.65,3.46-9,12l-3.56-.59q1.58-17,10.79-27.13T385.2,74.67Z"/><path class="a1916874-b111-4f61-ba70-deceba8f28bd" d="M498.29,74.67a41.63,41.63,0,0,1,15.65,2.87,112,112,0,0,1,13.86,6.73A115.83,115.83,0,0,0,541.56,91a39.3,39.3,0,0,0,15,2.87,24.44,24.44,0,0,0,12.87-3.47q5.75-3.47,8.91-12l3.57.59q-1.39,16.85-10.7,27t-21.39,10.2a41.38,41.38,0,0,1-15.64-2.88,110.74,110.74,0,0,1-13.87-6.73,118.32,118.32,0,0,0-13.66-6.73,38.84,38.84,0,0,0-15.05-2.87,23.94,23.94,0,0,0-12.78,3.46q-5.64,3.46-9,12l-3.56-.59q1.57-17,10.79-27.13T498.29,74.67Z"/><path class="a1916874-b111-4f61-ba70-deceba8f28bd" d="M611.38,74.67A41.58,41.58,0,0,1,627,77.54a111.46,111.46,0,0,1,13.87,6.73A114.35,114.35,0,0,0,654.65,91a39.24,39.24,0,0,0,15,2.87,24.45,24.45,0,0,0,12.88-3.47q5.74-3.47,8.91-12L695,79q-1.4,16.85-10.7,27t-21.39,10.2a41.43,41.43,0,0,1-15.65-2.88,110.61,110.61,0,0,1-13.86-6.73,119.12,119.12,0,0,0-13.66-6.73,38.89,38.89,0,0,0-15.06-2.87,23.9,23.9,0,0,0-12.77,3.46q-5.64,3.46-9,12l-3.57-.59q1.59-17,10.8-27.13T611.38,74.67Z"/><path class="a1916874-b111-4f61-ba70-deceba8f28bd" d="M758.33,14.66v4a34,34,0,0,0-10.2,1.48,7.42,7.42,0,0,0-4.65,4.76q-1.18,3.47-1.19,10.79V137.84a30.27,30.27,0,0,0,.79,8,5.14,5.14,0,0,0,3,3.56,17.58,17.58,0,0,0,6.34.89h6.54q6.93,0,15.05-6.93a69.67,69.67,0,0,0,14.65-18.12,70.84,70.84,0,0,0,8.72-23.87h4.55q-.58,7.14-.59,18.22,0,5.16.2,15t1.19,20.3q-10.11-.4-22.78-.5t-22.58-.1H738.23q-12,0-25.35.1t-24.86.5v-4a31.9,31.9,0,0,0,9.11-1.59,6.7,6.7,0,0,0,4-4.75,43.44,43.44,0,0,0,1-10.7V35.65a43.21,43.21,0,0,0-1-10.79A6.94,6.94,0,0,0,697,20.1a26.82,26.82,0,0,0-9-1.48v-4q5.75.19,15.15.39t20.11.2q9.9,0,19.41-.2T758.33,14.66Z"/><path class="a1916874-b111-4f61-ba70-deceba8f28bd" d="M835.57,49.91v86.55q0,8.31,2.48,11.29t8.61,3v4.16q-4-.19-11.88-.5t-16.24-.3q-8.32,0-16.84.3t-12.87.5v-4.16q6.13,0,8.62-3t2.47-11.29V73.68c0-6-.79-10.33-2.37-13.17s-4.5-4.26-8.72-4.26V52.09q6.33.58,12.28.59,9.9,0,18.52-.69A152.06,152.06,0,0,0,835.57,49.91ZM816.56,0q10.29,0,15.94,4.26T838.15,17q0,8.52-5.65,12.78t-15.94,4.26q-10.3,0-15.95-4.26T795,17q0-8.51,5.64-12.77T816.56,0Z"/><path class="a1916874-b111-4f61-ba70-deceba8f28bd" d="M910.63,49.32q9.11,0,14.36,2.27a20.93,20.93,0,0,1,8,5.65,22.7,22.7,0,0,1,4.36,9.5,74,74,0,0,1,1.38,16.05v53.67q0,8.31,2.48,11.29t8.62,3v4.16q-4-.19-12-.5t-15.74-.3q-8.32,0-16.24.3t-11.89.5v-4.16c3.44,0,5.81-1,7.13-3s2-5.75,2-11.29V72.09a20.84,20.84,0,0,0-1-6.93A8.06,8.06,0,0,0,899,61a10.05,10.05,0,0,0-5.64-1.39,14.35,14.35,0,0,0-9.9,4,13.28,13.28,0,0,0-4.36,10.3v62.59q0,8.31,2.08,11.29t7,3v4.16q-3.76-.19-11.09-.5t-15-.3q-8.33,0-16.84.3t-12.87.5v-4.16q6.14,0,8.62-3t2.47-11.29V73.68c0-6-.79-10.33-2.38-13.17s-4.49-4.26-8.71-4.26V52.09q6.33.58,12.28.59,9.9,0,18.52-.69a152.06,152.06,0,0,0,15.94-2.08V64.17a27.32,27.32,0,0,1,12.78-11.39A46.83,46.83,0,0,1,910.63,49.32Z"/><path class="a1916874-b111-4f61-ba70-deceba8f28bd" d="M987.28,49.32q17.41,0,27.43,10.2t10,34.16h-62l-.4-3.76h33.47A128.88,128.88,0,0,0,995,72a47.55,47.55,0,0,0-3.17-13.17q-2.18-4.95-5.94-5-5.34,0-8.71,8.42T972.82,91.1l.79,1.59c-.13,1.32-.2,2.64-.2,4v4.16q0,13.86,3.47,21.59t8.71,10.69a21.32,21.32,0,0,0,10.6,3,38.5,38.5,0,0,0,10.69-2.08q6.74-2.07,13.27-11.19l3.37,1.19a58.72,58.72,0,0,1-7.62,15.75,43.19,43.19,0,0,1-13.57,12.87q-8.33,5.06-20.2,5.05a51.36,51.36,0,0,1-23.08-5.15q-10.39-5.15-16.53-17t-6.14-31.89q0-19,6.73-31A41.73,41.73,0,0,1,961.43,55,58.29,58.29,0,0,1,987.28,49.32Z"/></g></g></svg>